<svg width="32" height="32" viewBox="0 0 32 32" fill="none" xmlns="http://www.w3.org/2000/svg">
<path d="M23.625 14.1094V8.25H17.7656V6.29688H23.625V0.4375H25.5781V6.29688H31.4375V8.25H25.5781V14.1094H23.625ZM29.3477 31.6875C26.056 31.6875 22.681 30.8633 19.2227 29.2148C15.7643 27.5664 12.5456 25.252 9.56641 22.2715C6.61068 19.2923 4.30859 16.0794 2.66016 12.6328C1.01172 9.1862 0.1875 5.81771 0.1875 2.52734C0.1875 1.94141 0.382813 1.44661 0.773438 1.04297C1.16406 0.639323 1.65234 0.4375 2.23828 0.4375H7.06836C7.59961 0.4375 8.06315 0.604818 8.45898 0.939453C8.85482 1.27409 9.1224 1.70312 9.26172 2.22656L10.2305 6.88281C10.3216 7.42969 10.3053 7.9069 10.1816 8.31445C10.0579 8.72201 9.84115 9.05599 9.53125 9.31641L5.24609 13.3125C6.04818 14.7669 6.93425 16.1185 7.9043 17.3672C8.87435 18.6159 9.90951 19.7988 11.0098 20.916C12.1426 22.0488 13.3626 23.1035 14.6699 24.0801C15.9772 25.0553 17.4121 25.9759 18.9746 26.8418L23.1523 22.5898C23.4701 22.2474 23.8275 22.0215 24.2246 21.9121C24.6204 21.804 25.0592 21.7826 25.541 21.8477L29.6484 22.6875C30.1797 22.8177 30.6107 23.0853 30.9414 23.4902C31.2721 23.8952 31.4375 24.3587 31.4375 24.8809V29.6367C31.4375 30.2227 31.2357 30.7109 30.832 31.1016C30.4284 31.4922 29.9336 31.6875 29.3477 31.6875Z" fill="#161D6F"/>
</svg>
