<svg width="32" height="32" viewBox="0 0 32 32" fill="none" xmlns="http://www.w3.org/2000/svg">
<path d="M23.5 14.1094V8.25H17.6406V6.29688H23.5V0.4375H25.4531V6.29688H31.3125V8.25H25.4531V14.1094H23.5ZM29.2227 31.6875C25.931 31.6875 22.556 30.8633 19.0977 29.2148C15.6393 27.5664 12.4264 25.252 9.45898 22.2715C6.49154 19.291 4.18359 16.0781 2.53516 12.6328C0.886718 9.1875 0.0625 5.81901 0.0625 2.52734C0.0625 1.93099 0.257813 1.43425 0.648438 1.03711C1.03906 0.639974 1.52734 0.440104 2.11328 0.4375H6.94336C7.47461 0.4375 7.93815 0.604818 8.33398 0.939453C8.72982 1.27409 8.9974 1.70312 9.13672 2.22656L10.1055 6.88281C10.1966 7.42969 10.1803 7.9069 10.0566 8.31445C9.93294 8.72201 9.71615 9.05599 9.40625 9.31641L5.12109 13.3125C5.92318 14.7669 6.80925 16.1185 7.7793 17.3672C8.74935 18.6159 9.78451 19.7988 10.8848 20.916C12.0176 22.0488 13.2376 23.1035 14.5449 24.0801C15.8522 25.0553 17.2871 25.9759 18.8496 26.8418L23.0273 22.5898C23.3451 22.2474 23.7025 22.0215 24.0996 21.9121C24.4954 21.804 24.9342 21.7826 25.416 21.8477L29.5234 22.6875C30.0547 22.8177 30.4857 23.0853 30.8164 23.4902C31.1471 23.8952 31.3125 24.3587 31.3125 24.8809V29.6367C31.3125 30.2227 31.1133 30.7109 30.7148 31.1016C30.3164 31.4922 29.8177 31.6875 29.2227 31.6875ZM4.20312 11.4805L7.95312 8.0332C8.07682 7.93294 8.15755 7.79492 8.19531 7.61914C8.23437 7.44336 8.22787 7.2806 8.17578 7.13086L7.31055 2.99023C7.25977 2.79102 7.17188 2.64128 7.04688 2.54102C6.92188 2.44076 6.75977 2.39062 6.56055 2.39062H2.55273C2.40299 2.39062 2.278 2.44076 2.17773 2.54102C2.07747 2.64128 2.02734 2.76628 2.02734 2.91602C2.0651 4.25065 2.27409 5.64388 2.6543 7.0957C3.03451 8.54753 3.54948 10.0091 4.20312 11.4805ZM20.709 27.7578C22.0293 28.4115 23.4355 28.8952 24.9277 29.209C26.4225 29.5215 27.7246 29.6888 28.834 29.7109C28.9837 29.7109 29.1087 29.6608 29.209 29.5605C29.3092 29.4603 29.3594 29.3359 29.3594 29.1875V25.2656C29.3594 25.0664 29.3092 24.9036 29.209 24.7773C29.1087 24.6523 28.959 24.5651 28.7598 24.5156L25.1465 23.7754C24.9954 23.7246 24.8633 23.7181 24.75 23.7559C24.638 23.7949 24.5195 23.8763 24.3945 24L20.709 27.7578Z" fill="#3C3C3C" fill-opacity="0.8"/>
</svg>
