<svg width="34" height="36" viewBox="0 0 34 36" fill="none" xmlns="http://www.w3.org/2000/svg">
<path d="M19.1633 1.4719C18.518 0.892133 17.6811 0.571411 16.8137 0.571411C15.9462 0.571411 15.1093 0.892133 14.4641 1.4719L1.57344 13.0547C1.2065 13.3841 0.912957 13.787 0.711872 14.2372C0.510787 14.6874 0.406658 15.1749 0.40625 15.668V32.2031C0.40625 33.1355 0.776645 34.0298 1.43595 34.6891C2.09526 35.3484 2.98947 35.7188 3.92188 35.7188H8.60938C9.54178 35.7188 10.436 35.3484 11.0953 34.6891C11.7546 34.0298 12.125 33.1355 12.125 32.2031V22.8281C12.125 22.5173 12.2485 22.2193 12.4682 21.9995C12.688 21.7797 12.9861 21.6563 13.2969 21.6563H20.3281C20.6389 21.6563 20.937 21.7797 21.1568 21.9995C21.3765 22.2193 21.5 22.5173 21.5 22.8281V32.2031C21.5 33.1355 21.8704 34.0298 22.5297 34.6891C23.189 35.3484 24.0832 35.7188 25.0156 35.7188H29.7031C30.6355 35.7188 31.5297 35.3484 32.189 34.6891C32.8484 34.0298 33.2188 33.1355 33.2188 32.2031V15.668C33.2186 15.1751 33.1149 14.6877 32.9142 14.2375C32.7135 13.7873 32.4204 13.3843 32.0539 13.0547L19.1633 1.4719Z" fill="#161D6F"/>
</svg>
