<svg width="34" height="36" viewBox="0 0 34 36" fill="none" xmlns="http://www.w3.org/2000/svg">
<path d="M14.3391 1.4719C14.9843 0.892133 15.8212 0.571411 16.6887 0.571411C17.5561 0.571411 18.393 0.892133 19.0383 1.4719L31.9289 13.0547C32.2954 13.3843 32.5885 13.7873 32.7892 14.2375C32.9899 14.6877 33.0936 15.1751 33.0938 15.668V32.2031C33.0937 33.1355 32.7234 34.0298 32.064 34.6891C31.4047 35.3484 30.5105 35.7188 29.5781 35.7188H23.7188C22.7863 35.7188 21.8921 35.3484 21.2328 34.6891C20.5735 34.0298 20.2031 33.1355 20.2031 32.2031V24C20.2031 23.6892 20.0797 23.3911 19.8599 23.1714C19.6401 22.9516 19.3421 22.8281 19.0312 22.8281H14.3438C14.0329 22.8281 13.7349 22.9516 13.5151 23.1714C13.2953 23.3911 13.1719 23.6892 13.1719 24V32.2031C13.1719 33.1355 12.8015 34.0298 12.1422 34.6891C11.4829 35.3484 10.5887 35.7188 9.65625 35.7188H3.79688C2.86447 35.7188 1.97026 35.3484 1.31095 34.6891C0.651645 34.0298 0.28125 33.1355 0.28125 32.2031V15.668C0.28125 14.6719 0.703125 13.7227 1.44844 13.0547L14.3391 1.4719ZM17.4703 3.21565C17.2553 3.02261 16.9765 2.91584 16.6875 2.91584C16.3985 2.91584 16.1197 3.02261 15.9047 3.21565L3.01406 14.7985C2.89195 14.9081 2.79421 15.0421 2.72719 15.1919C2.66017 15.3417 2.62536 15.5039 2.625 15.668V32.2031C2.625 32.5139 2.74847 32.812 2.96823 33.0318C3.188 33.2516 3.48607 33.375 3.79688 33.375H9.65625C9.96705 33.375 10.2651 33.2516 10.4849 33.0318C10.7047 32.812 10.8281 32.5139 10.8281 32.2031V24C10.8281 23.0676 11.1985 22.1734 11.8578 21.5141C12.5171 20.8548 13.4113 20.4844 14.3438 20.4844H19.0312C19.9637 20.4844 20.8579 20.8548 21.5172 21.5141C22.1765 22.1734 22.5469 23.0676 22.5469 24V32.2031C22.5469 32.5139 22.6703 32.812 22.8901 33.0318C23.1099 33.2516 23.4079 33.375 23.7188 33.375H29.5781C29.8889 33.375 30.187 33.2516 30.4068 33.0318C30.6265 32.812 30.75 32.5139 30.75 32.2031V15.668C30.7496 15.5039 30.7148 15.3417 30.6478 15.1919C30.5808 15.0421 30.4831 14.9081 30.3609 14.7985L17.4703 3.21565Z" fill="#3C3C3C" fill-opacity="0.8"/>
</svg>
