<svg width="38" height="38" viewBox="0 0 38 38" fill="none" xmlns="http://www.w3.org/2000/svg">
<path d="M33.1081 30.7207C34.993 28.4528 36.304 25.7643 36.9301 22.8826C37.5562 20.001 37.4791 17.0109 36.7052 14.1653C35.9313 11.3198 34.4835 8.70246 32.4842 6.5348C30.4848 4.36713 27.9928 2.7129 25.219 1.71202C22.4451 0.711151 19.471 0.393087 16.5482 0.784736C13.6254 1.17639 10.84 2.26623 8.42744 3.96207C6.01493 5.65791 4.04636 7.90986 2.68824 10.5274C1.33012 13.145 0.622424 16.0511 0.625007 19C0.62611 23.2869 2.13677 27.4364 4.89194 30.7207L4.86569 30.743C4.95757 30.8532 5.06257 30.9477 5.15707 31.0567C5.27519 31.1918 5.40251 31.3192 5.52457 31.4504C5.89032 31.8503 6.27094 32.2309 6.66644 32.5923C6.78894 32.7008 6.91144 32.8067 7.03394 32.9099C7.45394 33.273 7.88707 33.6152 8.33332 33.9363C8.39107 33.9757 8.44357 34.0268 8.50132 34.0675V34.0518C11.5753 36.2152 15.2424 37.3763 19.0013 37.3763C22.7602 37.3763 26.4274 36.2152 29.5013 34.0518V34.0675C29.5591 34.0268 29.6103 33.9757 29.6693 33.9363C30.1156 33.6143 30.5487 33.2722 30.9687 32.9099C31.0912 32.8058 31.2137 32.6999 31.3362 32.5923C31.7308 32.2309 32.1114 31.8503 32.4781 31.4504C32.6001 31.3192 32.7261 31.1918 32.8456 31.0567C32.9388 30.9477 33.0451 30.8532 33.1369 30.7417L33.1081 30.7207ZM19 8.50003C20.1682 8.50003 21.3101 8.84643 22.2813 9.49542C23.2526 10.1444 24.0096 11.0668 24.4567 12.1461C24.9037 13.2253 25.0207 14.4128 24.7928 15.5585C24.5649 16.7042 24.0024 17.7566 23.1764 18.5826C22.3504 19.4086 21.298 19.9712 20.1523 20.199C19.0066 20.4269 17.819 20.31 16.7398 19.8629C15.6606 19.4159 14.7381 18.6589 14.0891 17.6876C13.4402 16.7163 13.0938 15.5744 13.0938 14.4063C13.0938 12.8398 13.716 11.3376 14.8237 10.2299C15.9313 9.1223 17.4336 8.50003 19 8.50003ZM8.50919 30.7207C8.53196 28.9973 9.23231 27.3522 10.4587 26.1413C11.6851 24.9303 13.339 24.2509 15.0625 24.25H22.9375C24.661 24.2509 26.3149 24.9303 27.5413 26.1413C28.7677 27.3522 29.4681 28.9973 29.4908 30.7207C26.6123 33.3146 22.8748 34.7501 19 34.7501C15.1252 34.7501 11.3877 33.3146 8.50919 30.7207Z" fill="#161D6F"/>
</svg>
