<svg width="38" height="38" viewBox="0 0 38 38" fill="none" xmlns="http://www.w3.org/2000/svg">
<path d="M19 8.5C17.7021 8.5 16.4333 8.88488 15.3541 9.60598C14.2749 10.3271 13.4337 11.352 12.937 12.5511C12.4403 13.7503 12.3104 15.0698 12.5636 16.3428C12.8168 17.6158 13.4418 18.7851 14.3596 19.7029C15.2774 20.6207 16.4467 21.2457 17.7197 21.4989C18.9927 21.7521 20.3122 21.6222 21.5114 21.1255C22.7105 20.6288 23.7354 19.7876 24.4565 18.7084C25.1776 17.6292 25.5625 16.3604 25.5625 15.0625C25.5625 13.322 24.8711 11.6528 23.6404 10.4221C22.4097 9.1914 20.7405 8.5 19 8.5ZM19 19C18.2212 19 17.46 18.7691 16.8124 18.3364C16.1649 17.9038 15.6602 17.2888 15.3622 16.5693C15.0642 15.8498 14.9862 15.0581 15.1382 14.2943C15.2901 13.5305 15.6651 12.8289 16.2158 12.2783C16.7664 11.7276 17.468 11.3526 18.2318 11.2007C18.9956 11.0487 19.7873 11.1267 20.5068 11.4247C21.2263 11.7227 21.8413 12.2274 22.2739 12.8749C22.7066 13.5225 22.9375 14.2837 22.9375 15.0625C22.9365 16.1065 22.5213 17.1074 21.7831 17.8456C21.0449 18.5838 20.044 18.999 19 19Z" fill="#3C3C3C" fill-opacity="0.8"/>
<path d="M19 0.625C15.3658 0.625 11.8132 1.70268 8.7914 3.72175C5.76964 5.74082 3.41447 8.6106 2.02371 11.9682C0.632954 15.3258 0.269068 19.0204 0.978071 22.5848C1.68707 26.1492 3.43712 29.4233 6.00691 31.9931C8.5767 34.5629 11.8508 36.3129 15.4152 37.0219C18.9796 37.7309 22.6742 37.367 26.0318 35.9763C29.3894 34.5855 32.2592 32.2304 34.2783 29.2086C36.2973 26.1868 37.375 22.6342 37.375 19C37.3694 14.1284 35.4317 9.45783 31.9869 6.01305C28.5422 2.56827 23.8716 0.630558 19 0.625ZM11.125 32.6198V30.8125C11.126 29.7685 11.5412 28.7676 12.2794 28.0294C13.0176 27.2912 14.0185 26.876 15.0625 26.875H22.9375C23.9815 26.876 24.9824 27.2912 25.7206 28.0294C26.4588 28.7676 26.874 29.7685 26.875 30.8125V32.6198C24.4851 34.0151 21.7674 34.7504 19 34.7504C16.2326 34.7504 13.5149 34.0151 11.125 32.6198ZM29.4908 30.7154C29.4653 28.9934 28.7639 27.3504 27.538 26.1409C26.312 24.9313 24.6597 24.2522 22.9375 24.25H15.0625C13.3405 24.2526 11.6886 24.9318 10.4629 26.1413C9.23718 27.3508 8.53598 28.9936 8.5105 30.7154C6.13037 28.5901 4.4519 25.792 3.69735 22.6916C2.94279 19.5912 3.14776 16.3348 4.28509 13.3534C5.42242 10.3721 7.43848 7.80656 10.0663 5.99649C12.6941 4.18642 15.8098 3.21722 19.0007 3.21722C22.1916 3.21722 25.3072 4.18642 27.935 5.99649C30.5628 7.80656 32.5789 10.3721 33.7162 13.3534C34.8536 16.3348 35.0585 19.5912 34.304 22.6916C33.5494 25.792 31.8709 28.5901 29.4908 30.7154Z" fill="#3C3C3C" fill-opacity="0.8"/>
</svg>
