<svg width="97" height="97" viewBox="0 0 97 97" fill="none" xmlns="http://www.w3.org/2000/svg">
<path d="M36.875 57.75C35.475 57.75 34.291 57.266 33.323 56.298C32.355 55.33 31.8723 54.1474 31.875 52.75C31.8777 51.3527 32.3617 50.1687 33.327 49.198C34.2923 48.2274 35.475 47.7447 36.875 47.75C38.275 47.7554 39.459 48.2394 40.427 49.202C41.395 50.1647 41.8777 51.3474 41.875 52.75C41.8723 54.1527 41.3883 55.3367 40.423 56.302C39.4577 57.2673 38.275 57.75 36.875 57.75ZM60.875 57.75C59.475 57.75 58.291 57.266 57.323 56.298C56.355 55.33 55.8723 54.1474 55.875 52.75C55.8777 51.3527 56.3617 50.1687 57.327 49.198C58.2923 48.2274 59.475 47.7447 60.875 47.75C62.275 47.7554 63.459 48.2394 64.427 49.202C65.395 50.1647 65.8777 51.3474 65.875 52.75C65.8723 54.1527 65.3883 55.3367 64.423 56.302C63.4577 57.2673 62.275 57.75 60.875 57.75ZM48.875 80.75C57.8083 80.75 65.375 77.65 71.575 71.45C77.775 65.25 80.875 57.6834 80.875 48.75C80.875 47.15 80.775 45.6007 80.575 44.102C80.375 42.6034 80.0083 41.1527 79.475 39.75C78.075 40.0834 76.675 40.334 75.275 40.502C73.875 40.67 72.4083 40.7527 70.875 40.75C64.8083 40.75 59.075 39.45 53.675 36.85C48.275 34.25 43.675 30.6167 39.875 25.95C37.7417 31.15 34.6923 35.6674 30.727 39.502C26.7617 43.3367 22.1443 46.2194 16.875 48.15V48.75C16.875 57.6834 19.975 65.25 26.175 71.45C32.375 77.65 39.9417 80.75 48.875 80.75ZM48.875 88.75C43.3417 88.75 38.1417 87.7007 33.275 85.602C28.4083 83.5034 24.175 80.6527 20.575 77.05C16.975 73.4474 14.1257 69.214 12.027 64.35C9.92834 59.486 8.87767 54.286 8.87501 48.75C8.87234 43.214 9.92301 38.014 12.027 33.15C14.131 28.286 16.9803 24.0527 20.575 20.45C24.1697 16.8474 28.403 13.998 33.275 11.902C38.147 9.80602 43.347 8.75535 48.875 8.75002C54.403 8.74469 59.603 9.79535 64.475 11.902C69.347 14.0087 73.5803 16.858 77.175 20.45C80.7697 24.042 83.6203 28.2754 85.727 33.15C87.8337 38.0247 88.883 43.2247 88.875 48.75C88.867 54.2754 87.8163 59.4753 85.723 64.35C83.6297 69.2247 80.7803 73.458 77.175 77.05C73.5697 80.642 69.3363 83.4927 64.475 85.602C59.6137 87.7114 54.4137 88.7607 48.875 88.75Z" fill="black"/>
</svg>
