<svg width="648" height="532" viewBox="0 0 648 532" fill="none" xmlns="http://www.w3.org/2000/svg">
<path d="M366.297 159.224L333.94 223.937C330.034 231.815 318.706 231.555 315.125 223.547L278.081 141.32L258.55 188H197.287L316.102 309.419C320.724 314.172 328.211 314.172 332.833 309.419L451.714 188H380.685L366.297 159.224ZM466.232 48.612L464.669 46.9844C431.141 12.7396 376.258 12.7396 342.664 46.9844L324.5 65.6042L306.336 47.0495C272.807 12.7396 217.859 12.7396 184.331 47.0495L182.768 48.612C151.063 81.0338 149.695 132.661 178.016 167.167H244.682L268.055 111.047C271.57 102.648 283.419 102.453 287.195 110.786L325.086 194.966L356.987 131.229C360.828 123.547 371.766 123.547 375.607 131.229L393.576 167.167H470.984C499.305 132.661 497.938 81.0338 466.232 48.612Z" fill="#9C1515"/>
</svg>
